# AST/ASF file generated using VICON BodyLanguage
# -----------------------------------------------
:version 1.10
:name VICON
:units
  mass 1.0
  length 0.45
  angle deg
:documentation
   .ast/.asf automatically generated from VICON data using
   VICON BodyBuilder and BodyLanguage model FoxedUp or BRILLIANT.MOD
:root
   order TX TY TZ RX RY RZ
   axis XYZ
   position 0 0 0  
   orientation 0 0 0 
:bonedata
  begin
     id 1 
     name lhipjoint
     direction 0.560651 -0.75055 0.34978 
     length 2.44936 
     axis 0 0 0  XYZ
  end
  begin
     id 2 
     name lfemur
     direction 0.34202 -0.939693 0  
     length 7.42139  
     axis 0 0 20  XYZ
    dof rx ry rz
    limits (-160.0 20.0)
           (-70.0 70.0)
           (-60.0 70.0)
  end
  begin
     id 3 
     name ltibia
     direction 0.34202 -0.939693 0   
     length 7.75674   
     axis 0 0 20   XYZ
    dof rx
    limits (-10.0 170.0)
  end
  begin
     id 4 
     name lfoot
     direction 0.0925879 -0.254383 0.962661   
     length 2.38688   
     axis -90 7.62852e-016 20   XYZ
    dof rx rz
    limits (-45.0 90.0)
           (-70.0 20.0)
  end
  begin
     id 5 
     name ltoes
     direction 1.53567e-011 -4.21973e-011 1   
     length 1.19228   
     axis -90 7.62852e-016 20   XYZ
    dof rx
    limits (-90.0 20.0)
  end
  begin
     id 6 
     name rhipjoint
     direction -0.540087 -0.762838 0.355506   
     length 2.4099  
     axis 0 0 0  XYZ 
  end
  begin
     id 7 
     name rfemur
     direction -0.34202 -0.939693 0   
     length 7.70794   
     axis 0 0 -20   XYZ
    dof rx ry rz
    limits (-160.0 20.0)
           (-70.0 70.0)
           (-70.0 60.0)
  end
  begin
     id 8 
     name rtibia
     direction -0.34202 -0.939693 0   
     length 7.66106   
     axis 0 0 -20   XYZ
    dof rx
    limits (-10.0 170.0)
 end
 begin
     id 9 
     name rfoot
     direction -0.0830975 -0.228308 0.970036   
     length 2.4989  
     axis -90 -7.62852e-016 -20   XYZ
    dof rx rz
    limits (-45.0 90.0)
           (-20.0 70.0)
  end
  begin
     id 10 
     name rtoes
     direction -1.53517e-011 -4.21842e-011 1   
     length 1.2498   
     axis -90 -7.62852e-016 -20   XYZ
    dof rx
    limits (-90.0 20.0)
  end
  begin
     id 11 
     name lowerback
     direction 0.0266356 0.99402 -0.105896   
     length 2.1545   
     axis 0 0 0   XYZ
    dof rx ry rz
    limits (-20.0 45.0)
           (-30.0 30.0)
           (-30.0 30.0)
  end
  begin
     id 12 
     name upperback
     direction 0.0130547 0.999192 0.0380027   
     length 2.1434   
     axis 0 0 0   XYZ
    dof rx ry rz
    limits (-20.0 45.0)
           (-30.0 30.0)
           (-30.0 30.0)
  end
  begin
     id 13 
     name thorax
     direction 0.000590299 0.996288 0.0860764   
     length 2.19049   
     axis 0 0 0   XYZ
    dof rx ry rz
    limits (-20.0 45.0)
           (-30.0 30.0)
           (-30.0 30.0)
  end
  begin
     id 14 
     name lowerneck
     direction -0.0432125 0.978219 0.203028   
     length 1.62441   
     axis 0 0 0   XYZ
    dof rx ry rz
    limits (-20.0 45.0)
           (-30.0 30.0)
           (-30.0 30.0)
  end
  begin
     id 15 
     name upperneck
     direction -0.0192309 0.991699 -0.127138   
     length 1.66666   
     axis 0 0 0   XYZ
    dof rx ry rz
    limits (-20.0 45.0)
           (-30.0 30.0)
           (-30.0 30.0)
  end
  begin
     id 16
     name head
     direction -0.00434499 0.997882 -0.0649107  
     length 1.67142  
     axis 0 0 0   XYZ
    dof rx ry rz
    limits (-20.0 45.0)
           (-30.0 30.0)
           (-30.0 30.0)
  end
  begin
     id 17 
     name lclavicle
     direction 0.970351 0.240904 -0.0196058  
     length 4.04862  
     axis 0 0 0   XYZ
    dof ry rz
    limits (-20.0 10.0)
           (0.0 20.0)
  end
  begin
     id 18 
     name lhumerus
     direction 1 -4.4896e-011 -1.40911e-018   
     length 5.58345   
     axis 180 -30 -90   XYZ
    dof rx ry rz
    limits (-60.0 90.0)
           (-90.0 90.0)
           (-90.0 90.0)
  end
  begin
     id 19
     name lradius
     direction 1 -4.48968e-011 5.88912e-028   
     length 3.71087   
     axis 180 -30 -90   XYZ
    dof rx
    limits (-10.0 170.0)
  end
  begin
     id 20
     name lwrist
     direction 1 -4.48955e-011 -8.83775e-028   
     length 1.85544   
     axis 5.52448e-016 90 90   XYZ
    dof ry
    limits (-180.0 0.0)
 end
  begin
     id 21 
     name lhand
     direction 1 -4.49035e-011 -1.76755e-027   
     length 0.562322   
     axis 1.12785e-015 90 90   XYZ
    dof rx rz
    limits (-90.0 90.0)
           (-45.0 45.0)
  end
  begin
     id 22 
     name lfingers
     direction 1 -4.48824e-011 -3.5351e-027   
     length 0.453359   
     axis 2.2557e-015 90 90   XYZ
    dof rx
    limits (0.0 90.0)
  end
  begin
     id 23
     name lthumb
     direction 0.707107 -6.34888e-011 0.707107   
     length 0.650935   
     axis -90 45 2.85299e-015   XYZ
    dof rx rz
    limits (-45.0 45.0)
           (-45.0 45.0)
  end
  begin
     id 24 
     name rclavicle
     direction -0.96165 0.268562 -0.0557131   
     length 4.05446  
     axis 0 0 0   XYZ 
    dof ry rz
    limits (-10.0 20.0)
           (-20.0 0.0)
  end
  begin
     id 25 
     name rhumerus
     direction -1 -4.48957e-011 -3.36329e-027  
     length 5.20357   
     axis 180 30 90   XYZ
    dof rx ry rz
    limits (-90.0 60.0)
           (-90.0 90.0)
           (-90.0 90.0)
  end
  begin
     id 26 
     name rradius
     direction -1 -4.48974e-011 4.51441e-027   
     length 3.64937   
     axis 180 30 90   XYZ
    dof rx
    limits (-10.0 170.0)
  end
  begin
     id 27 
     name rwrist
     direction -1 -4.4896e-011 -8.83775e-028   
     length 1.82468   
     axis 5.52448e-016 -90 -90   XYZ
    dof ry
    limits (-180.0 0.0)
  end
  begin
     id 28
     name rhand
     direction -1 -4.48996e-011 -1.76755e-027   
     length 0.617996   
     axis 1.12785e-015 -90 -90   XYZ
    dof rx rz
    limits (-90.0 90.0)
           (-45.0 45.0)
  end
  begin
     id 29
     name rfingers
     direction -1 -4.48957e-011 -3.5351e-027   
     length 0.498244   
     axis 2.2557e-015 -90 -90   XYZ
    dof rx
    limits (0.0 90.0)
  end
  begin
     id 30
     name rthumb
     direction -0.707107 -6.34931e-011 0.707107   
     length 0.715382   
     axis -90 -45 -2.85299e-015   XYZ
    dof rx rz
    limits (-45.0 45.0)
           (-45.0 45.0)
  end
:hierarchy
  begin
    root lhipjoint rhipjoint lowerback
    lhipjoint lfemur
    lfemur ltibia
    ltibia lfoot
    lfoot ltoes
    rhipjoint rfemur
    rfemur rtibia
    rtibia rfoot
    rfoot rtoes
    lowerback upperback
    upperback thorax
    thorax lowerneck lclavicle rclavicle
    lowerneck upperneck
    upperneck head
    lclavicle lhumerus
    lhumerus lradius
    lradius lwrist
    lwrist lhand lthumb
    lhand lfingers
    rclavicle rhumerus
    rhumerus rradius
    rradius rwrist
    rwrist rhand rthumb
    rhand rfingers
  end

#!OML:ASF H:\ManfredETheater\Project 1\Capture day 2\Session 1\Male1.ASF
:FULLY-SPECIFIED
:DEGREES
333
root -13.7772 17.5585 -26.371 191.657 -20.1206 183.879
lowerback 8.21862 1.66792 7.90033
upperback -1.68667 3.04497 3.72874
thorax -6.19322 1.17168 -0.900522
lowerneck -20.8889 -0.943936 -1.08242
upperneck 12.9102 -0.413966 -3.40726
head 7.37446 -0.614503 -1.00633
rclavicle 7.55382e-014 4.92986e-014
rhumerus -32.0394 12.2105 -92.0756
rradius 49.2336
rwrist 4.27754
rhand -29.4494 -9.18705
rfingers 7.12502
rthumb -2.78577 -399.149
lclavicle 7.55382e-014 4.92986e-014
lhumerus -53.4514 -7.05286 100.129
lradius 72.6991
lwrist 5.00957
lhand -22.3304 -6.04886
lfingers 7.12502
lthumb 4.08973 23.8916
rfemur -9.9611 -3.15119 15.7923
rtibia 26.9543
rfoot -22.8153 -16.8767
rtoes -15.6476
lfemur -14.9099 -7.83656 -6.09406
ltibia 31.2468
lfoot -24.9886 0.672821
ltoes -0.303167
334
root -13.8288 17.5469 -26.4244 191.817 -20.3488 183.714
lowerback 8.032 1.6529 7.80069
upperback -1.79856 3.0069 3.64778
thorax -6.20889 1.15665 -0.921182
lowerneck -20.8487 -1.01025 -1.13189
upperneck 12.8735 -0.500515 -3.35288
head 7.35461 -0.651761 -0.990144
rclavicle 4.29375e-014 1.90833e-014
rhumerus -32.2218 12.6535 -92.4239
rradius 50.0975
rwrist 3.97902
rhand -29.428 -9.01478
rfingers 7.12502
rthumb -2.7651 -398.977
lclavicle 4.29375e-014 1.90833e-014
lhumerus -53.3413 -7.3439 100.457
lradius 72.9173
lwrist 5.13671
lhand -22.2024 -5.96432
lfingers 7.12502
lthumb 4.21331 23.9738
rfemur -9.678 -3.11585 15.5697
rtibia 26.7855
rfoot -22.9028 -17.2038
rtoes -15.8194
lfemur -14.8742 -7.9669 -6.35174
ltibia 31.298
lfoot -25.2247 0.610507
ltoes -0.0850948
335
root -13.8821 17.5345 -26.4779 191.993 -20.5733 183.529
lowerback 7.86359 1.63804 7.69153
upperback -1.90803 2.96999 3.55952
thorax -6.23223 1.14232 -0.945002
lowerneck -20.8125 -1.08089 -1.19042
upperneck 12.8127 -0.591319 -3.29754
head 7.32756 -0.691235 -0.972507
rclavicle -7.35503e-015 9.54166e-015
rhumerus -32.4312 13.0944 -92.7634
rradius 51.0284
rwrist 3.66422
rhand -29.4008 -8.82992
rfingers 7.12502
rthumb -2.7388 -398.792
lclavicle -7.35503e-015 9.54166e-015
lhumerus -53.251 -7.68366 100.779
lradius 73.1943
lwrist 5.27685
lhand -22.0635 -5.88065
lfingers 7.12502
lthumb 4.34745 24.0547
rfemur -9.41839 -3.08967 15.3215
rtibia 26.6528
rfoot -22.9945 -17.5256
rtoes -16.0238
lfemur -14.85 -8.07351 -6.63414
ltibia 31.3612
lfoot -25.4671 0.526998
ltoes 0.146946
336
root -13.9373 17.521 -26.5313 192.185 -20.7978 183.319
lowerback 7.71646 1.61995 7.57232
upperback -2.01711 2.9302 3.46162
thorax -6.26734 1.12661 -0.973763
lowerneck -20.7826 -1.15082 -1.25171
upperneck 12.7316 -0.68054 -3.24478
head 7.29499 -0.73024 -0.954957
rclavicle 6.16232e-014 1.11319e-014
rhumerus -32.6755 13.5289 -93.0965
rradius 52.0309
rwrist 3.32218
rhand -29.3662 -8.63809
rfingers 7.12502
rthumb -2.70535 -398.601
lclavicle 6.16232e-014 1.11319e-014
lhumerus -53.1864 -8.06759 101.088
lradius 73.5297
lwrist 5.43178
lhand -21.9097 -5.81076
lfingers 7.12502
lthumb 4.496 24.1215
rfemur -9.18299 -3.08135 15.0441
rtibia 26.5631
rfoot -23.0921 -17.8395
rtoes -16.2705
lfemur -14.839 -8.16051 -6.94474
ltibia 31.4391
lfoot -25.7161 0.42207
ltoes 0.390873
337
root -13.9943 17.5065 -26.5845 192.39 -21.022 183.086
lowerback 7.59299 1.59856 7.4445
upperback -2.12349 2.88747 3.35672
thorax -6.31324 1.10948 -1.00552
lowerneck -20.7724 -1.22081 -1.32118
upperneck 12.6453 -0.767006 -3.19403
head 7.26418 -0.768765 -0.936556
rclavicle 6.77856e-014 3.18055e-015
rhumerus -32.9508 13.9562 -93.4144
rradius 53.0971
rwrist 2.95491
rhand -29.3178 -8.44364
rfingers 7.12502
rthumb -2.65866 -398.407
lclavicle 6.77856e-014 3.18055e-015
lhumerus -53.1434 -8.48729 101.382
lradius 73.918
lwrist 5.59429
lhand -21.7452 -5.77645
lfingers 7.12502
lthumb 4.6548 24.1524
rfemur -8.97399 -3.07566 14.7392
rtibia 26.5253
rfoot -23.1964 -18.1594
rtoes -16.5631
lfemur -14.8394 -8.23813 -7.28295
ltibia 31.5321
lfoot -25.9716 0.305914
ltoes 0.641591
338
root -14.0533 17.4906 -26.6375 192.607 -21.246 182.831
lowerback 7.48808 1.57441 7.31209
upperback -2.22148 2.84179 3.24585
thorax -6.36082 1.09117 -1.04117
lowerneck -20.7911 -1.28967 -1.39738
upperneck 12.5552 -0.848898 -3.14756
head 7.23707 -0.806188 -0.918192
rclavicle -1.00784e-013 -2.54444e-014
rhumerus -33.2454 14.3642 -93.709
rradius 54.215
rwrist 2.57424
rhand -29.2563 -8.21969
rfingers 7.12502
rthumb -2.59921 -398.184
lclavicle -1.00784e-013 -2.54444e-014
lhumerus -53.1122 -8.93927 101.66
lradius 74.3542
lwrist 5.76736
lhand -21.5661 -5.78242
lfingers 7.12502
lthumb 4.82778 24.1426
rfemur -8.79554 -3.09329 14.4079
rtibia 26.5522
rfoot -23.3091 -18.4694
rtoes -16.9213
lfemur -14.8473 -8.3118 -7.64646
ltibia 31.6375
lfoot -26.2341 0.183988
ltoes 0.88158
339
root -14.1144 17.4736 -26.6901 192.839 -21.4712 182.55
lowerback 7.40209 1.54444 7.17193
upperback -2.31493 2.7891 3.12754
thorax -6.41476 1.06961 -1.08004
lowerneck -20.8258 -1.35664 -1.47252
upperneck 12.4615 -0.927066 -3.10896
head 7.21153 -0.842747 -0.902297
rclavicle 7.55382e-015 6.99722e-014
rhumerus -33.5698 14.742 -93.9815
rradius 55.3828
rwrist 2.18187
rhand -29.1734 -7.96138
rfingers 7.12502
rthumb -2.51916 -397.926
lclavicle 7.55382e-015 6.99722e-014
lhumerus -53.0964 -9.41346 101.914
lradius 74.8364
lwrist 5.95032
lhand -21.3797 -5.82873
lfingers 7.12502
lthumb 5.00776 24.0921
rfemur -8.65582 -3.11886 14.0475
rtibia 26.6587
rfoot -23.4307 -18.7875
rtoes -17.3461
lfemur -14.8627 -8.38924 -8.03895
ltibia 31.7491
lfoot -26.4999 0.0577646
ltoes 1.11723
340
root -14.1774 17.4556 -26.7423 193.077 -21.7008 182.245
lowerback 7.34208 1.50629 7.02364
upperback -2.40144 2.72664 3.00476
thorax -6.47694 1.04349 -1.11867
lowerneck -20.8751 -1.41838 -1.54645
upperneck 12.3647 -0.996807 -3.08007
head 7.18752 -0.876381 -0.888939
rclavicle -2.68359e-014 -2.06736e-014
rhumerus -33.9114 15.1054 -94.2312
rradius 56.5638
rwrist 1.75115
rhand -29.0668 -7.64595
rfingers 7.12502
rthumb -2.41619 -397.612
lclavicle -2.68359e-014 -2.06736e-014
lhumerus -53.0946 -9.90055 102.145
lradius 75.3581
lwrist 6.14281
lhand -21.1867 -5.9162
lfingers 7.12502
lthumb 5.19403 24.0001
rfemur -8.55523 -3.15274 13.6581
rtibia 26.8632
rfoot -23.575 -19.1005
rtoes -17.7937
lfemur -14.8709 -8.48775 -8.45951
ltibia 31.8571
lfoot -26.7686 -0.0620452
ltoes 1.33751
341
root -14.2426 17.4367 -26.7942 193.32 -21.9315 181.915
lowerback 7.30506 1.46044 6.86733
upperback -2.47846 2.65448 2.8777
thorax -6.54289 1.01302 -1.15675
lowerneck -20.9363 -1.47634 -1.62327
upperneck 12.2623 -1.0603 -3.05283
head 7.16376 -0.907445 -0.875014
rclavicle -1.41137e-014 7.95139e-015
rhumerus -34.2696 15.4209 -94.4505
rradius 57.7509
rwrist 1.33136
rhand -28.9444 -7.25579
rfingers 7.12502
rthumb -2.29804 -397.223
lclavicle -1.41137e-014 7.95139e-015
lhumerus -53.1016 -10.3982 102.351
lradius 75.9182
lwrist 6.35102
lhand -20.9908 -6.0297
lfingers 7.12502
lthumb 5.38319 23.8819
rfemur -8.50437 -3.20553 13.2378
rtibia 27.1877
rfoot -23.7376 -19.3959
rtoes -18.2774
lfemur -14.8637 -8.60805 -8.90853
ltibia 31.9512
lfoot -27.0374 -0.174625
ltoes 1.54061
342
root -14.3099 17.4171 -26.846 193.566 -22.1611 181.562
lowerback 7.29228 1.40633 6.69926
upperback -2.54579 2.57155 2.74766
thorax -6.61342 0.977859 -1.19066
lowerneck -20.9965 -1.52692 -1.68909
upperneck 12.1472 -1.11557 -3.03771
head 7.13563 -0.935163 -0.865765
rclavicle -2.08724e-014 -1.11319e-014
rhumerus -34.6458 15.675 -94.6374
rradius 58.9288
rwrist 0.934599
rhand -28.7769 -6.81055
rfingers 7.12502
rthumb -2.13622 -396.78
lclavicle -2.08724e-014 -1.11319e-014
lhumerus -53.1154 -10.9002 102.533
lradius 76.5168
lwrist 6.57026
lhand -20.8044 -6.12777
lfingers 7.12502
lthumb 5.56317 23.7792
rfemur -8.51075 -3.25315 12.7892
rtibia 27.6547
rfoot -23.9052 -19.6932
rtoes -18.8257
lfemur -14.8302 -8.75452 -9.38554
ltibia 32.0213
lfoot -27.3052 -0.277108
ltoes 1.73104
343
root -14.3794 17.397 -26.8975 193.817 -22.3826 181.177
lowerback 7.30501 1.34647 6.51222
upperback -2.60391 2.48055 2.61158
thorax -6.68965 0.939654 -1.21996
lowerneck -21.0471 -1.57152 -1.74965
upperneck 12.0127 -1.16459 -3.02713
head 7.09959 -0.959849 -0.857843
rclavicle -1.72943e-014 -4.13472e-014
rhumerus -35.0313 15.8464 -94.7861
rradius 60.0712
rwrist 0.597414
rhand -28.5833 -6.31336
rfingers 7.12502
rthumb -1.94929 -396.284
lclavicle -1.72943e-014 -4.13472e-014
lhumerus -53.1335 -11.4075 102.69
lradius 77.147
lwrist 6.79588
lhand -20.618 -6.20305
lfingers 7.12502
lthumb 5.74315 23.6991
rfemur -8.58843 -3.30997 12.3006
rtibia 28.2859
rfoot -24.0747 -19.9714
rtoes -19.4296
lfemur -14.7678 -8.92416 -9.90055
ltibia 32.0622
lfoot -27.5691 -0.365497
ltoes 1.90094
344
root -14.4509 17.376 -26.9488 194.074 -22.5969 180.756
lowerback 7.34225 1.27972 6.29926
upperback -2.65097 2.3789 2.46882
thorax -6.76936 0.897601 -1.24094
lowerneck -21.0859 -1.60778 -1.80259
upperneck 11.8562 -1.20509 -3.02085
head 7.05443 -0.980237 -0.851223
rclavicle 5.80451e-014 -2.06736e-014
rhumerus -35.4213 15.9258 -94.8922
rradius 61.1607
rwrist 0.329547
rhand -28.3751 -5.78965
rfingers 7.12502
rthumb -1.74818 -395.762
lclavicle 5.80451e-014 -2.06736e-014
lhumerus -53.1476 -11.9178 102.824
lradius 77.8034
lwrist 7.02254
lhand -20.4514 -6.23397
lfingers 7.12502
lthumb 5.90399 23.6638
rfemur -8.74277 -3.38509 11.7659
rtibia 29.1026
rfoot -24.2268 -20.228
rtoes -20.118
lfemur -14.6703 -9.11613 -10.4601
ltibia 32.0714
lfoot -27.8292 -0.440263
ltoes 2.04101
345
root -14.5245 17.3539 -26.9998 194.334 -22.7982 180.303
lowerback 7.40505 1.20964 6.06486
upperback -2.6836 2.27138 2.32199
thorax -6.84908 0.853982 -1.25384
lowerneck -21.1196 -1.642 -1.85571
upperneck 11.6804 -1.24382 -3.01512
head 7.00214 -0.999683 -0.844318
rclavicle -1.35174e-014 -3.18055e-015
rhumerus -35.8112 15.9088 -94.9448
rradius 62.185
rwrist 0.147092
rhand -28.1795 -5.27712
rfingers 7.12502
rthumb -1.55925 -395.251
lclavicle -1.35174e-014 -3.18055e-015
lhumerus -53.141 -12.4285 102.936
lradius 78.476
lwrist 7.238
lhand -20.3063 -6.23755
lfingers 7.12502
lthumb 6.04411 23.6562
rfemur -8.98766 -3.48828 11.1882
rtibia 30.1255
rfoot -24.3327 -20.4491
rtoes -20.899
lfemur -14.5367 -9.32031 -11.0599
ltibia 32.0499
lfoot -28.0874 -0.503316
ltoes 2.15993
346
root -14.6 17.331 -27.0503 194.598 -22.9848 179.825
lowerback 7.4962 1.13724 5.81311
upperback -2.70431 2.15973 2.1707
thorax -6.93277 0.809262 -1.26151
lowerneck -21.1515 -1.67066 -1.90119
upperneck 11.4863 -1.2773 -3.01597
head 6.94353 -1.01679 -0.839999
rclavicle 1.5704e-014 6.36111e-015
rhumerus -36.1989 15.784 -94.9428
rradius 63.1325
rwrist 0.0432108
rhand -28.0128 -4.80773
rfingers 7.12502
rthumb -1.3983 -394.783
lclavicle 1.5704e-014 6.36111e-015
lhumerus -53.1039 -12.9381 103.024
lradius 79.1501
lwrist 7.43484
lhand -20.1746 -6.2279
lfingers 7.12502
lthumb 6.17129 23.6622
rfemur -9.3377 -3.6145 10.572
rtibia 31.3729
rfoot -24.3684 -20.6369
rtoes -21.7775
lfemur -14.3715 -9.52651 -11.6946
ltibia 32.0006
lfoot -28.345 -0.55662
ltoes 2.24375
347
root -14.6772 17.3071 -27.1003 194.863 -23.1568 179.327
lowerback 7.6138 1.06201 5.54545
upperback -2.71123 2.04287 2.01894
thorax -7.01743 0.762945 -1.2602
lowerneck -21.1786 -1.69457 -1.94468
upperneck 11.2737 -1.30614 -3.01696
head 6.87819 -1.03147 -0.83528
rclavicle -4.96962e-015 -1.74931e-014
rhumerus -36.5831 15.5585 -94.8827
rradius 63.9953
rwrist -0.0102658
rhand -27.906 -4.40966
rfingers 7.12502
rthumb -1.29511 -394.385
lclavicle -4.96962e-015 -1.74931e-014
lhumerus -53.0235 -13.4392 103.086
lradius 79.8125
lwrist 7.59353
lhand -20.0523 -6.22398
lfingers 7.12502
lthumb 6.28932 23.6626
rfemur -9.80349 -3.7567 9.92272
rtibia 32.8625
rfoot -24.3142 -20.7871
rtoes -22.7237
lfemur -14.1756 -9.72661 -12.3577
ltibia 31.9267
lfoot -28.6033 -0.607737
ltoes 2.31715
